<svg width="32" height="32" viewBox="0 0 32 32" fill="none" xmlns="http://www.w3.org/2000/svg">
<path fill-rule="evenodd" clip-rule="evenodd" d="M1.94025 0.506532C1.369 0.808368 0.81 1.38353 0.50275 1.98595C0.01825 2.93622 0 3.44162 0 15.9954C0 28.5545 0.018 29.0542 0.50325 30.0059C0.82725 30.6414 1.35825 31.1725 1.9935 31.4966C2.945 31.982 3.4445 32 16 32C28.5555 32 29.055 31.982 30.0065 31.4966C30.6418 31.1725 31.1728 30.6414 31.4967 30.0059C31.982 29.0542 32 28.5545 32 15.9954C32 3.43637 31.982 2.93672 31.4967 1.98495C31.1728 1.34952 30.6418 0.81837 30.0065 0.494278C29.054 0.00838975 28.5672 -0.00861512 15.9475 0.00188787C3.42625 0.0126409 2.8355 0.033897 1.94025 0.506532ZM29.0427 2.90546C29.4742 3.29608 29.5 4.03129 29.5 15.9519C29.5 27.3559 29.4598 28.629 29.0863 29.0419C28.7208 29.4458 28.2393 29.4993 24.9613 29.4993H21.25V24.3728V19.2464H23.098C25.1785 19.2464 25.0588 19.3737 25.3932 16.8082L25.5645 15.4953H23.4072H21.25V13.702C21.25 11.2859 21.5235 10.994 23.7887 10.994H25.5V8.99345V6.99288L23.6875 6.99838C19.5427 7.01088 17.2578 9.34005 17.2525 13.5572L17.25 15.4953H15.375H13.5V17.3708V19.2464H15.375H17.25V24.3728V29.4993H10.3322C4.246 29.4993 3.3595 29.4495 2.95725 29.0854C2.52575 28.6948 2.5 27.9596 2.5 16.039C2.5 4.63496 2.54025 3.36185 2.91375 2.94898C3.30425 2.51735 4.03925 2.4916 15.9565 2.4916C27.3573 2.4916 28.63 2.53186 29.0427 2.90546Z" fill="#D69610"/>
</svg>
