<svg width="32" height="32" viewBox="0 0 32 32" fill="none" xmlns="http://www.w3.org/2000/svg">
<path fill-rule="evenodd" clip-rule="evenodd" d="M7.76152 0.242758C5.75488 0.568186 3.41768 1.79476 2.37254 3.07059C1.00966 4.73467 0.503542 6.15298 0.194093 9.1733C-0.204775 13.0694 0.0534343 24.0374 0.58442 25.7556C1.46228 28.5962 3.55307 30.6573 6.4745 31.5625C7.69647 31.9409 9.00585 32 16.1759 32C23.7029 32 24.6014 31.9553 25.9524 31.5122C28.6388 30.6312 30.7451 28.5183 31.5582 25.8895C31.9437 24.6433 32 23.3554 32 15.7914C32 7.32276 31.9867 7.08855 31.4213 5.68884C30.2064 2.68033 27.5999 0.713937 24.1698 0.217879C22.0713 -0.0856859 9.67021 -0.06709 7.76152 0.242758ZM24.5652 3.24474C26.1787 3.59102 27.6999 4.70024 28.374 6.02231C29.0585 7.36498 29.3491 10.3499 29.3491 16.0427C29.3491 24.2015 28.8904 26.3466 26.8255 27.8431C25.1793 29.0362 24.0063 29.1609 15.2968 29.0684C7.71958 28.988 7.3413 28.9611 6.35619 28.4339C5.79054 28.1311 4.98301 27.4905 4.56179 27.0105C3.1753 25.4306 3.11477 24.971 3.11477 16.0427C3.11477 6.90234 3.19891 6.35779 4.85918 4.74774C6.50916 3.14799 7.47568 2.99269 15.8496 2.98364C20.2425 2.97861 23.826 3.08617 24.5652 3.24474ZM23.4487 6.10523C22.1981 7.35618 22.9564 9.25774 24.7061 9.25774C26.438 9.25774 27.2156 7.33809 25.9831 6.10523C25.644 5.76599 25.0738 5.4883 24.7159 5.4883C24.358 5.4883 23.7878 5.76599 23.4487 6.10523ZM14.2253 8.00805C6.72316 9.89829 5.57353 19.9838 12.4731 23.3806C13.9663 24.1158 14.386 24.2083 16.1714 24.1965C18.6543 24.1802 20.4851 23.3974 22.074 21.6728C23.7042 19.9031 24.2085 18.573 24.2085 16.0427C24.2085 13.5124 23.7042 12.1823 22.074 10.4127C20.1957 8.37393 16.8461 7.34764 14.2253 8.00805ZM19.0155 11.5827C22.1773 13.676 22.1803 18.4074 19.0212 20.4987C17.6237 21.4242 15.3021 21.5908 13.8947 20.8668C9.74757 18.7336 9.75887 13.4335 13.9153 11.1686C15.1152 10.5147 17.7222 10.7266 19.0155 11.5827Z" fill="#D69610"/>
</svg>
