<svg width="32" height="21" viewBox="0 0 32 21" fill="none" xmlns="http://www.w3.org/2000/svg">
<path fill-rule="evenodd" clip-rule="evenodd" d="M1.89307 0.145822C1.06189 0.454132 0.258669 1.37377 0.10911 2.18821C-0.169033 3.70131 0.267408 4.05725 7.90612 8.54759C14.1172 12.1986 15.1443 12.7294 16 12.7294C16.8557 12.7294 17.8843 12.1977 24.1099 8.53811C29.8293 5.17603 31.3194 4.1995 31.6425 3.60074C32.1833 2.59929 31.9283 1.51204 30.9613 0.693634L30.1993 0.0485655L16.2959 0.00467891C8.64892 -0.0195801 2.16772 0.0439342 1.89307 0.145822ZM0.0726569 12.7175L0.145314 19.5581L0.961518 20.2788L1.77772 20.9995H16H30.2223L31.0385 20.2788L31.8547 19.5581L31.9273 12.7175L32 5.87668L25.186 9.89397C20.9439 12.3951 17.9243 14.0275 17.186 14.2191C15.256 14.72 14.3793 14.3543 6.81402 9.89397L0 5.87668L0.0726569 12.7175Z" fill="#D69610"/>
</svg>
