<svg width="32" height="32" viewBox="0 0 32 32" fill="none" xmlns="http://www.w3.org/2000/svg">
<path fill-rule="evenodd" clip-rule="evenodd" d="M1.49238 0.165646C0.252665 0.694526 -0.0216517 1.3638 0.00129207 3.80239C0.0497008 8.9289 1.79645 14.2419 5.09985 19.3108C6.26342 21.0962 10.923 25.7461 12.7121 26.9073C17.7996 30.2092 23.1155 31.947 28.2735 31.9953C30.4908 32.016 30.6304 31.9848 31.2991 31.3193L32 30.6218V26.6074C32 22.6312 31.9939 22.5869 31.3518 21.9461C30.8049 21.4006 30.2911 21.2426 28.0741 20.9384C26.6279 20.7401 24.9908 20.4651 24.4361 20.3278C22.5532 19.8608 22.1702 19.9778 19.8829 21.7197C18.4912 22.7792 17.5681 23.3189 17.3137 23.2215C16.2104 22.7991 13.3533 20.6357 12.0203 19.2139C10.7095 17.8155 8.67806 14.9051 8.67806 14.4255C8.67806 14.335 9.41554 13.2852 10.3169 12.0926C12.051 9.79846 12.2167 9.24467 11.6955 7.48342C11.5526 7.00008 11.2775 5.42677 11.0841 3.98707C10.7859 1.76587 10.6336 1.27071 10.0784 0.716165C9.43949 0.077835 9.33864 0.0614805 5.7105 0.00662994C3.66801 -0.0240662 1.76973 0.0473904 1.49238 0.165646Z" fill="#D69610"/>
</svg>
